<svg xmlns="http://www.w3.org/2000/svg" version="1.1" xmlns:xlink="http://www.w3.org/1999/xlink" xmlns:svgjs="http://svgjs.dev/svgjs" width="2000" height="641" viewBox="0 0 2000 641"><g transform="matrix(1,0,0,1,-1.2121212121212466,0.3376703553931293)"><svg viewBox="0 0 396 127" data-background-color="#ffffff" preserveAspectRatio="xMidYMid meet" height="641" width="2000" xmlns="http://www.w3.org/2000/svg" xmlns:xlink="http://www.w3.org/1999/xlink"><g id="tight-bounds" transform="matrix(1,0,0,1,0.2400000000000091,-0.06690192688756724)"><svg viewBox="0 0 395.52 127.13380385377513" height="127.13380385377513" width="395.52"><g><svg viewBox="0 0 395.52 127.13380385377513" height="127.13380385377513" width="395.52"><g><svg viewBox="0 0 395.52 127.13380385377513" height="127.13380385377513" width="395.52"><g id="textblocktransform"><svg viewBox="0 0 395.52 127.13380385377513" height="127.13380385377513" width="395.52" id="textblock"><g><svg viewBox="0 0 395.52 94.11572044213011" height="94.11572044213011" width="395.52"><rect width="395.52" height="94.11572044213011" x="0" y="0" opacity="1" fill="#22c55e" data-fill-palette-color="tertiary"></rect><g transform="matrix(1,0,0,1,23.461705032,23.461705032000005)"><svg width="348.596589936" viewBox="3.25 -34.25 255.93 34.65" height="47.1923103781301" data-palette-color="#ffffff"><path d="M10.95-13.95L10.95-6.15 15-6.15Q20.7-6.15 20.7-10.05 20.7-13.95 15.05-13.95L15.05-13.95 10.95-13.95ZM15.05-27.55L10.95-27.55 10.95-20 13.8-20Q16.8-20 18.32-21.1 19.85-22.2 19.85-24L19.85-24Q19.85-27.55 15.05-27.55L15.05-27.55ZM3.25 0L3.25-33.7 16.35-33.7Q21.9-33.7 24.8-31.08 27.7-28.45 27.7-24.4L27.7-24.4Q27.7-21.75 26.3-19.75 24.9-17.75 22.65-17.05L22.65-17.05Q28.5-15.3 28.5-9.15L28.5-9.15Q28.5-5.15 25.63-2.58 22.75 0 17.8 0L17.8 0 3.25 0ZM40.45 0L32.75 0 35.65-33.7 44.1-33.7 48.8-21.5Q50-18.45 50.85-15.9 51.7-13.35 51.95-12.3L51.95-12.3 52.2-11.3Q53-14.6 55.7-21.5L55.7-21.5 60.45-33.7 68.9-33.7 72.4 0 64.7 0 63.45-13.05 62.8-22.9Q61.5-19.15 59.2-13.05L59.2-13.05 54.45-0.35 49.9-0.35 45.2-13.05Q44.05-16.15 43.25-18.6 42.45-21.05 42.2-22L42.2-22 41.95-22.9Q41.95-19.35 41.5-13.05L41.5-13.05 40.45 0ZM110.09-32.2L110.09-32.2 110.09-25Q106.04-27.35 101.69-27.35L101.69-27.35Q99.74-27.35 98.72-26.55 97.69-25.75 97.69-24.5 97.69-23.25 98.94-22.28 100.19-21.3 102.69-20.2L102.69-20.2Q104.24-19.5 105.27-18.98 106.29-18.45 107.62-17.53 108.94-16.6 109.72-15.58 110.49-14.55 111.04-13.05 111.59-11.55 111.59-9.8L111.59-9.8Q111.59-5.25 108.24-2.43 104.89 0.4 99.34 0.4L99.34 0.4Q93.39 0.4 89.64-1.7L89.64-1.7 89.64-9.45Q94.19-6.15 99.34-6.15L99.34-6.15Q101.09-6.15 102.24-7.08 103.39-8 103.39-9.5L103.39-9.5Q103.39-10 103.24-10.45 103.09-10.9 102.69-11.3 102.29-11.7 101.92-11.98 101.54-12.25 100.82-12.63 100.09-13 99.59-13.25 99.09-13.5 98.12-13.95 97.14-14.4 96.54-14.65L96.54-14.65Q93.29-16.15 91.32-18.35 89.34-20.55 89.34-24.2L89.34-24.2Q89.34-28.55 92.54-31.23 95.74-33.9 101.39-33.9L101.39-33.9Q106.44-33.9 110.09-32.2ZM114.59-33.7L138.79-33.7 138.79-27.5 130.59-27.5 130.59 0 122.84 0 122.84-27.5 114.59-27.5 114.59-33.7ZM142.29-16.95L142.29-16.95Q142.29-24.7 146.76-29.48 151.24-34.25 158.69-34.25L158.69-34.25Q166.19-34.25 170.64-29.5 175.09-24.75 175.09-16.95L175.09-16.95Q175.09-9.2 170.61-4.42 166.14 0.35 158.69 0.35L158.69 0.35Q151.19 0.35 146.74-4.4 142.29-9.15 142.29-16.95ZM152.74-24.48Q150.54-21.7 150.54-16.95 150.54-12.2 152.74-9.43 154.94-6.65 158.69-6.65 162.44-6.65 164.64-9.43 166.84-12.2 166.84-16.95 166.84-21.7 164.64-24.48 162.44-27.25 158.69-27.25 154.94-27.25 152.74-24.48ZM191.84-27.45L188.04-27.45 188.04-17.95 191.69-17.95Q196.69-17.95 196.69-22.85L196.69-22.85Q196.69-25 195.39-26.23 194.09-27.45 191.84-27.45L191.84-27.45ZM206.89 0L197.69 0 190.39-11.7 188.04-11.7 188.04 0 180.34 0 180.34-33.7 191.99-33.7Q197.64-33.7 201.06-30.7 204.49-27.7 204.49-22.9L204.49-22.9Q204.49-15.7 198.34-12.95L198.34-12.95 206.89 0ZM218.78-13.8L218.78-6.15 231.98-6.15 231.98 0 211.03 0 211.03-33.7 231.78-33.7 231.78-27.55 218.78-27.55 218.78-19.9 230.38-19.9 230.38-13.8 218.78-13.8ZM257.68-32.2L257.68-32.2 257.68-25Q253.63-27.35 249.28-27.35L249.28-27.35Q247.33-27.35 246.31-26.55 245.28-25.75 245.28-24.5 245.28-23.25 246.53-22.28 247.78-21.3 250.28-20.2L250.28-20.2Q251.83-19.5 252.86-18.98 253.88-18.45 255.21-17.53 256.53-16.6 257.31-15.58 258.08-14.55 258.63-13.05 259.18-11.55 259.18-9.8L259.18-9.8Q259.18-5.25 255.83-2.43 252.48 0.4 246.93 0.4L246.93 0.4Q240.98 0.4 237.23-1.7L237.23-1.7 237.23-9.45Q241.78-6.15 246.93-6.15L246.93-6.15Q248.68-6.15 249.83-7.08 250.98-8 250.98-9.5L250.98-9.5Q250.98-10 250.83-10.45 250.68-10.9 250.28-11.3 249.88-11.7 249.51-11.98 249.13-12.25 248.41-12.63 247.68-13 247.18-13.25 246.68-13.5 245.71-13.95 244.73-14.4 244.13-14.65L244.13-14.65Q240.88-16.15 238.91-18.35 236.93-20.55 236.93-24.2L236.93-24.2Q236.93-28.55 240.13-31.23 243.33-33.9 248.98-33.9L248.98-33.9Q254.03-33.9 257.68-32.2Z" opacity="1" transform="matrix(1,0,0,1,0,0)" fill="#ffffff" class="wordmark-text-0" data-fill-palette-color="quaternary" id="text-0"></path></svg></g></svg></g><g transform="matrix(1,0,0,1,0,105.84657295813011)"><svg viewBox="0 0 395.52 21.287230895645028" height="21.287230895645028" width="395.52"><g transform="matrix(1,0,0,1,0,0)"><svg width="395.52" viewBox="-8.3 -32 608.4499999999999 32.75" height="21.287230895645028" data-palette-color="#6b7280"><path d="M12.9-19.4L12.9-19.4-8.3-21.65 13.25-21.65Q13-20.65 12.9-19.4ZM-6.9-26.45L14.6-26.45 13.85-24.25-6.9-26.45ZM-7.85-16.85L12.9-16.85Q13-15.5 13.3-14.6L13.3-14.6-7.85-16.85ZM19.9-9.8L19.9-9.8-6.55-12.05 15-12.05Q16.65-10.45 19.9-9.8ZM-3.15-31.25L18.35-31.25Q17.2-30.5 16.15-29.2L16.15-29.2-3.15-31.25ZM10.55-5.05L-7.4-7.25 11.3-7.25 10.55-5.05ZM8.95-0.2L-8.25-2.4 9.7-2.4 8.95-0.2ZM10.65-0.55L13.45-8.8Q17.65-7.65 21.13-7.65 24.6-7.65 26.8-7.95L26.8-7.95 27.2-10.45 23.05-10.85Q18.3-11.3 16.32-13 14.35-14.7 14.35-17.8L14.35-17.8Q14.35-19.15 14.65-20.8L14.65-20.8Q15.8-27.2 18.85-29.6 21.9-32 28.23-32 34.55-32 39.4-30.75L39.4-30.75 36.8-22.75Q32.45-23.5 29.83-23.5 27.2-23.5 25.3-23.25L25.3-23.25 24.9-20.8 28.25-20.45Q33.35-19.9 35.5-18.03 37.65-16.15 37.65-13L37.65-13Q37.65-9.8 36.3-6.4L36.3-6.4Q35.55-4.65 34.73-3.48 33.9-2.3 32.63-1.48 31.35-0.65 30.3-0.23 29.25 0.2 27.6 0.4L27.6 0.4Q25.3 0.75 21.9 0.75L21.9 0.75Q15.7 0.75 10.65-0.55L10.65-0.55ZM74.95 0L66.2 0 66-4.05 59.7-4.05 58.15 0 49.5 0 60.6-26.45 73-26.45 74.95 0ZM62.35-11.2L66-11.2 66-18.8 65.3-18.8 62.35-11.2ZM48.85-2.4L47.9-0.2 27.4-2.4 48.85-2.4ZM50.9-7.25L49.95-5.05 29.45-7.25 50.9-7.25ZM52.9-12.05L52-9.85 31.5-12.05 52.9-12.05ZM54.95-16.85L54-14.65 33.55-16.85 54.95-16.85ZM56.95-21.65L56.05-19.45 35.6-21.65 56.95-21.65ZM58.95-26.45L58.05-24.3 37.65-26.45 58.95-26.45ZM105.55-7.35L104.25 0 88 0 92.6-26.45 101.4-26.45 98.05-7.35 105.55-7.35ZM86.75-2.4L86.35-0.15 65.15-2.4 86.75-2.4ZM88.45-12.05L88.05-9.8 66.85-12.05 88.45-12.05ZM89.3-16.85L88.9-14.6 67.7-16.85 89.3-16.85ZM90.15-21.65L89.75-19.4 68.55-21.65 90.15-21.65ZM90.95-26.45L90.6-24.2 69.4-26.45 90.95-26.45ZM87.6-7.25L87.2-5 66-7.25 87.6-7.25ZM134.94-15.55L134.09-10.75 126.64-10.75 126.04-7.35 135.29-7.35 133.99 0 116.34 0 120.94-26.45 138.54-26.45 136.19-18.95 128.04-18.95 127.44-15.55 134.94-15.55ZM115.09-2.4L114.69-0.15 93.49-2.4 115.09-2.4ZM116.79-12.05L116.39-9.8 95.19-12.05 116.79-12.05ZM117.64-16.85L117.24-14.6 96.04-16.85 117.64-16.85ZM118.49-21.65L118.09-19.4 96.89-21.65 118.49-21.65ZM119.29-26.45L118.94-24.2 97.74-26.45 119.29-26.45ZM115.94-7.25L115.54-5 94.34-7.25 115.94-7.25ZM147.94-0.15L127.04-2.4 148.64-2.4 147.94-0.15ZM130.89-21.65L152.44-21.65Q152.14-20.85 151.79-19.4L151.79-19.4 130.89-21.65ZM151.19-15L151.19-15 151.19-14.6 129.99-16.85 151.29-16.85Q151.19-15.65 151.19-15ZM150.24-7.25L149.54-5.05 128.69-7.25 150.24-7.25ZM134.34-26.45L155.89-26.45Q154.54-25.45 153.84-24.35L153.84-24.35 134.34-26.45ZM131.94-12.05L151.64-12.05Q152.09-10.75 153.09-9.8L153.09-9.8 131.94-12.05ZM173.99-25.9L171.59-18.6Q168.19-19.4 165.79-19.4 163.39-19.4 162.24-19.25L162.24-19.25 161.99-17.8 164.49-17.5Q172.54-16.45 172.54-10.85L172.54-10.85Q172.54-10.2 172.24-8.43 171.94-6.65 171.24-5 170.54-3.35 169.47-2.33 168.39-1.3 167.37-0.68 166.34-0.05 164.74 0.2L164.74 0.2Q162.24 0.6 158.07 0.6 153.89 0.6 149.64-0.55L149.64-0.55 152.09-7.95Q155.99-6.85 158.92-6.85 161.84-6.85 163.04-7L163.04-7 163.29-8.6 160.14-8.95Q156.09-9.4 154.39-10.85 152.69-12.3 152.69-15L152.69-15Q152.69-16 152.94-17.5L152.94-17.5Q153.94-22.85 156.54-24.9 159.14-26.95 164.47-26.95 169.79-26.95 173.99-25.9L173.99-25.9ZM208.84 0L197.49 0 197.49-26.45 206.59-26.45 206.59-12.15 206.84-12.15 212.44-26.45 220.04-26.45 220.04-12.15 220.24-12.15 224.84-26.45 234.39-26.45 224.64 0 213.79 0 213.04-9.35 212.69-9.35 208.84 0ZM176.19-26.45L195.84-26.45 195.84-24.2 176.19-26.45ZM176.19-21.65L195.84-21.65 195.84-19.4 176.19-21.65ZM176.19-16.85L195.84-16.85 195.84-14.6 176.19-16.85ZM176.19-12.05L195.84-12.05 195.84-9.8 176.19-12.05ZM176.19-7.25L195.84-7.25 195.84-5 176.19-7.25ZM176.19-2.4L195.84-2.4 195.84-0.15 176.19-2.4ZM251.73 0L242.98 0 247.58-26.45 256.38-26.45 251.73 0ZM241.73-2.4L241.33-0.15 220.13-2.4 241.73-2.4ZM243.43-12.05L243.03-9.8 221.83-12.05 243.43-12.05ZM244.28-16.85L243.88-14.6 222.68-16.85 244.28-16.85ZM245.13-21.65L244.73-19.4 223.53-21.65 245.13-21.65ZM245.93-26.45L245.58-24.2 224.38-26.45 245.93-26.45ZM242.58-7.25L242.18-5 220.98-7.25 242.58-7.25ZM289.93-26.45L288.58-18.95 283.18-18.95 279.88 0 271.08 0 274.38-18.95 268.83-18.95 270.18-26.45 289.93-26.45ZM269.98-2.4L269.58-0.15 248.38-2.4 269.98-2.4ZM271.68-12.05L271.28-9.8 250.08-12.05 271.68-12.05ZM272.53-16.85L272.13-14.6 250.93-16.85 272.53-16.85ZM267.73-21.65L267.33-19.4 246.13-21.65 267.73-21.65ZM268.53-26.45L268.18-24.2 246.98-26.45 268.53-26.45ZM270.83-7.25L270.43-5 249.23-7.25 270.83-7.25ZM321.03 0L312.63 0 314.18-9.15 308.58-9.15 306.98 0 298.58 0 303.18-26.45 311.63-26.45 309.98-17.3 315.63-17.3 317.23-26.45 325.68-26.45 321.03 0ZM297.33-2.4L296.93-0.15 275.73-2.4 297.33-2.4ZM299.03-12.05L298.63-9.8 277.43-12.05 299.03-12.05ZM299.88-16.85L299.48-14.6 278.28-16.85 299.88-16.85ZM300.73-21.65L300.33-19.4 279.13-21.65 300.73-21.65ZM301.53-26.45L301.18-24.2 279.98-26.45 301.53-26.45ZM298.18-7.25L297.78-5 276.58-7.25 298.18-7.25ZM352.43-26.95L352.43-26.95Q357.83-26.95 360.13-24.88 362.43-22.8 362.43-18.4L362.43-18.4Q362.43-16.25 361.88-13.2L361.88-13.2Q360.63-6 357.48-2.7 354.33 0.6 347.58 0.6L347.58 0.6Q342.28 0.6 340.03-1.48 337.78-3.55 337.78-7.9L337.78-7.9Q337.78-10.15 338.33-13.2L338.33-13.2Q339.58-20.4 342.68-23.68 345.78-26.95 352.43-26.95ZM346.08-7L349.03-7Q350.48-7 351.2-7.35 351.93-7.7 352.18-8.9L352.18-8.9 354.08-19.35 351.03-19.35Q349.63-19.35 348.85-19 348.08-18.65 347.93-17.5L347.93-17.5 346.08-7ZM316.63-12.05L336.58-12.05Q336.38-10.5 336.33-9.95L336.33-9.95 316.63-12.05ZM317.53-16.85L337.53-16.85 337.08-14.75 317.53-16.85ZM316.83-7.25L336.28-7.25Q336.28-6.45 336.48-5.15L336.48-5.15 316.83-7.25ZM319.53-21.65L339.28-21.65Q338.68-20.35 338.43-19.65L338.43-19.65 319.53-21.65ZM321.18-2.4L337.33-2.4Q337.93-1.2 338.63-0.55L338.63-0.55 321.18-2.4ZM326.23-26.45L343.63-26.45Q342.43-25.75 341.58-24.8L341.58-24.8 326.23-26.45ZM375.57-12.05L375.17-9.8 353.97-12.05 375.57-12.05ZM376.42-16.85L376.02-14.6 354.82-16.85 376.42-16.85ZM377.27-21.65L376.87-19.4 355.67-21.65 377.27-21.65ZM378.07-26.45L377.72-24.2 356.52-26.45 378.07-26.45ZM353.82-7.25L374.97-7.25 374.97-6.25Q374.97-5.4 375.02-5L375.02-5 353.82-7.25ZM376.92-0.15L376.92-0.15 355.72-2.4 375.47-2.4Q376.02-1 376.92-0.15ZM384.67-7L387.17-7Q388.52-7 389.05-7.33 389.57-7.65 389.77-8.9L389.77-8.9 392.92-26.45 401.32-26.45 398.72-11.55Q397.52-4.55 394.85-1.98 392.17 0.6 385.72 0.6L385.72 0.6Q380.57 0.6 378.52-0.93 376.47-2.45 376.47-6.25L376.47-6.25Q376.47-8.35 377.02-11.55L377.02-11.55 379.67-26.45 388.07-26.45 384.67-7ZM433.97-26.45L432.62-18.95 427.22-18.95 423.92 0 415.12 0 418.42-18.95 412.87-18.95 414.22-26.45 433.97-26.45ZM414.02-2.4L413.62-0.15 392.42-2.4 414.02-2.4ZM415.72-12.05L415.32-9.8 394.12-12.05 415.72-12.05ZM416.57-16.85L416.17-14.6 394.97-16.85 416.57-16.85ZM411.77-21.65L411.37-19.4 390.17-21.65 411.77-21.65ZM412.57-26.45L412.22-24.2 391.02-26.45 412.57-26.45ZM414.87-7.25L414.47-5 393.27-7.25 414.87-7.25ZM473.02-8L471.62 0 452.62 0 458.12-31.25 467.62-31.25 463.52-8 473.02-8ZM451.52-2.4L451.12-0.15 429.92-2.4 451.52-2.4ZM453.22-12.05L452.81-9.8 431.62-12.05 453.22-12.05ZM454.06-16.85L453.67-14.6 432.47-16.85 454.06-16.85ZM454.92-21.65L454.52-19.4 433.31-21.65 454.92-21.65ZM455.72-26.45L455.37-24.2 434.17-26.45 455.72-26.45ZM452.37-7.25L451.97-5 430.77-7.25 452.37-7.25ZM456.56-31.25L456.17-29 435.02-31.25 456.56-31.25ZM492.46 0L483.71 0 488.31-26.45 497.11-26.45 492.46 0ZM482.46-2.4L482.06-0.15 460.86-2.4 482.46-2.4ZM484.16-12.05L483.76-9.8 462.56-12.05 484.16-12.05ZM485.01-16.85L484.61-14.6 463.41-16.85 485.01-16.85ZM485.86-21.65L485.46-19.4 464.26-21.65 485.86-21.65ZM486.66-26.45L486.31-24.2 465.11-26.45 486.66-26.45ZM483.31-7.25L482.91-5 461.71-7.25 483.31-7.25ZM531.21-10.75L526.71 0 520.11 0 519.36-10.75 519.11-10.75 516.71 0 508.16 0 514.21-26.45 525.06-26.45 525.81-14.05 526.01-14.05 531.06-26.45 541.91-26.45 538.71 0 530.11 0 531.46-10.75 531.21-10.75ZM507.01-2.4L506.51-0.15 485.31-2.4 507.01-2.4ZM508.16-7.25L507.61-5 486.46-7.25 508.16-7.25ZM509.26-12.05L508.76-9.8 487.61-12.05 509.26-12.05ZM510.31-16.85L509.76-14.6 488.76-16.85 510.31-16.85ZM511.41-21.65L510.91-19.4 489.91-21.65 511.41-21.65ZM512.56-26.45L512.01-24.2 491.06-26.45 512.56-26.45ZM561.96 0L553.21 0 557.81-26.45 566.61-26.45 561.96 0ZM551.96-2.4L551.56-0.15 530.36-2.4 551.96-2.4ZM553.66-12.05L553.26-9.8 532.06-12.05 553.66-12.05ZM554.51-16.85L554.11-14.6 532.91-16.85 554.51-16.85ZM555.36-21.65L554.96-19.4 533.76-21.65 555.36-21.65ZM556.16-26.45L555.81-24.2 534.61-26.45 556.16-26.45ZM552.81-7.25L552.41-5 531.21-7.25 552.81-7.25ZM600.15-26.45L598.8-18.95 593.4-18.95 590.1 0 581.3 0 584.6-18.95 579.05-18.95 580.4-26.45 600.15-26.45ZM580.2-2.4L579.8-0.15 558.6-2.4 580.2-2.4ZM581.9-12.05L581.5-9.8 560.3-12.05 581.9-12.05ZM582.75-16.85L582.35-14.6 561.15-16.85 582.75-16.85ZM577.95-21.65L577.55-19.4 556.35-21.65 577.95-21.65ZM578.75-26.45L578.4-24.2 557.2-26.45 578.75-26.45ZM581.05-7.25L580.65-5 559.45-7.25 581.05-7.25Z" opacity="1" transform="matrix(1,0,0,1,0,0)" fill="#6b7280" class="slogan-text-1" data-fill-palette-color="secondary" id="text-1"></path></svg></g></svg></g></svg></g></svg></g></svg></g><defs></defs></svg><rect width="395.52" height="127.13380385377513" fill="none" stroke="none" visibility="hidden"></rect></g></svg></g></svg>